<?xml version="1.0" encoding="utf-8"?>
<!-- Generator: Adobe Illustrator 26.3.1, SVG Export Plug-In . SVG Version: 6.00 Build 0)  -->
<svg version="1.1" id="Layer_1" xmlns="http://www.w3.org/2000/svg" xmlns:xlink="http://www.w3.org/1999/xlink" x="0px" y="0px"
	 viewBox="0 0 840 500" style="enable-background:new 0 0 840 500;" xml:space="preserve">
<style type="text/css">
	.st0{fill:#0053AC;}
	.st1{fill:#2CC3EA;}
</style>
<g>
	<g>
		<path class="st0" d="M298.6,500L298.6,500c-22.3,0-40.5-18.2-40.5-40.5v-419c0-22.3,18.2-40.5,40.5-40.5l0,0
			c22.3,0,40.5,18.2,40.5,40.5v419C339.1,481.8,320.9,500,298.6,500z"/>
		<path class="st0" d="M541.4,500L541.4,500c-22.3,0-40.5-18.2-40.5-40.5v-419C500.9,18.2,519,0,541.4,0l0,0
			c22.3,0,40.5,18.2,40.5,40.5v419C581.9,481.8,563.7,500,541.4,500z"/>
	</g>
	<path class="st1" d="M420,345.2L420,345.2c-21.1,0-38.1-17-38.1-38.1V192.9c0-21.1,17-38.1,38.1-38.1l0,0c21.1,0,38.1,17,38.1,38.1
		v114.3C458.1,328.2,441.1,345.2,420,345.2z"/>
</g>
</svg>
