<?xml version="1.0" encoding="utf-8"?>
<!-- Generator: Adobe Illustrator 26.3.1, SVG Export Plug-In . SVG Version: 6.00 Build 0)  -->
<svg version="1.1" id="Layer_1" xmlns="http://www.w3.org/2000/svg" xmlns:xlink="http://www.w3.org/1999/xlink" x="0px" y="0px"
	 viewBox="0 0 1100 510" style="enable-background:new 0 0 1100 510;" xml:space="preserve">
<style type="text/css">
	.st0{fill:#EFBA1C;}
	.st1{fill:#FFFFFF;}
	.st2{fill:#0053AC;}
	.st3{fill:#2CC3EA;}
</style>
<g id="img1" transform="matrix(1,0,0,1,165,386)">
</g>
<g id="img2" transform="matrix(1,0,0,1,580,1)">
</g>
<g id="Background">
</g>
<g>
	<circle class="st0" cx="845" cy="255.5" r="255"/>
	<g id="Layer_2_00000139259588255319211720000016390004208802934706_">
		<g id="Layer_1-2">
			<path class="st1" d="M845,76.5l44.2,45.3L777.9,233.1l-44.2-44.2L845,76.5z"/>
			<path class="st1" d="M912.1,143.6l44.2,45.3L777.9,367.4l-44.2-44.2L912.1,143.6z"/>
			<path class="st1" d="M710.7,210.7L755,256l-44.2,44.2L666.5,256L710.7,210.7z"/>
			<path class="st1" d="M979.3,210.7l44.2,45.3L845,434.5l-44.2-44.2L979.3,210.7z"/>
		</g>
	</g>
</g>
<g>
	<circle class="st2" cx="255" cy="255.5" r="255"/>
	<g>
		<path class="st3" d="M173.7,422.9L173.7,422.9c-15,0-27.1-12.2-27.1-27.1V115.2c0-15,12.2-27.1,27.1-27.1l0,0
			c15,0,27.1,12.2,27.1,27.1v280.5C200.8,410.7,188.7,422.9,173.7,422.9z"/>
		<path class="st3" d="M336.3,422.9L336.3,422.9c-15,0-27.1-12.2-27.1-27.1V115.2c0-15,12.2-27.1,27.1-27.1l0,0
			c15,0,27.1,12.2,27.1,27.1v280.5C363.4,410.7,351.2,422.9,336.3,422.9z"/>
	</g>
	<path class="st1" d="M255,319.2L255,319.2c-14.1,0-25.5-11.4-25.5-25.5v-76.5c0-14.1,11.4-25.5,25.5-25.5l0,0
		c14.1,0,25.5,11.4,25.5,25.5v76.5C280.5,307.9,269.1,319.2,255,319.2z"/>
	<g>
		<path class="st1" d="M255,231.2c-15.9,0-31.2-0.4-45.7-1.1v9.5c14.7,0.7,30,1.1,45.7,1.1s30.9-0.3,45.7-1.1v-9.5
			C286.2,230.9,270.9,231.2,255,231.2z"/>
		<path class="st1" d="M138.1,233.4v-10.3c-28.3-4.8-45.7-11.4-45.7-18.6s17.4-13.8,45.7-18.6c19.3-3.3,43.8-5.8,71.2-7.1
			c14.5-0.7,29.8-1.1,45.7-1.1s31.2,0.4,45.7,1.1c27.4,1.3,51.9,3.8,71.2,7.1c28.3,4.8,45.7,11.4,45.7,18.6s-17.4,13.8-45.7,18.6
			v10.3c60.8-8.4,101.1-23.2,101.1-39.9s-40.3-31.5-101.1-39.9c-21.5-3-45.5-5.1-71.2-6.3c-14.7-0.7-30-1.1-45.7-1.1
			s-30.9,0.3-45.7,1.1c-25.7,1.2-49.7,3.4-71.2,6.3c-60.8,8.4-101.1,23.2-101.1,39.9S77.3,225,138.1,233.4z"/>
	</g>
</g>
</svg>
