<?xml version="1.0" encoding="utf-8"?>
<!-- Generator: Adobe Illustrator 26.3.1, SVG Export Plug-In . SVG Version: 6.00 Build 0)  -->
<svg version="1.1" id="Layer_1" xmlns="http://www.w3.org/2000/svg" xmlns:xlink="http://www.w3.org/1999/xlink" x="0px" y="0px"
	 viewBox="0 0 840 500" style="enable-background:new 0 0 840 500;" xml:space="preserve">
<style type="text/css">
	.st0{fill:#0053AC;}
	.st1{fill:#2CC3EA;}
	.st2{fill:#FFFFFF;}
</style>
<g>
	<circle class="st0" cx="420" cy="250" r="250"/>
	<g>
		<path class="st1" d="M340.3,414.1L340.3,414.1c-14.7,0-26.6-11.9-26.6-26.6v-275c0-14.7,11.9-26.6,26.6-26.6l0,0
			c14.7,0,26.6,11.9,26.6,26.6v275C366.9,402.2,355,414.1,340.3,414.1z"/>
		<path class="st1" d="M499.7,414.1L499.7,414.1c-14.7,0-26.6-11.9-26.6-26.6v-275c0-14.7,11.9-26.6,26.6-26.6l0,0
			c14.7,0,26.6,11.9,26.6,26.6v275C526.2,402.2,514.3,414.1,499.7,414.1z"/>
	</g>
	<path class="st2" d="M420,312.5L420,312.5c-13.8,0-25-11.2-25-25v-75c0-13.8,11.2-25,25-25l0,0c13.8,0,25,11.2,25,25v75
		C445,301.3,433.8,312.5,420,312.5z"/>
	<g>
		<path class="st2" d="M420,226.2c-15.5,0-30.6-0.4-44.8-1v9.3c14.5,0.7,29.4,1,44.8,1s30.3-0.3,44.8-1v-9.3
			C450.6,225.8,435.5,226.2,420,226.2z"/>
		<path class="st2" d="M305.4,228.3v-10.1c-27.7-4.7-44.8-11.2-44.8-18.2s17.1-13.5,44.8-18.2c19-3.2,42.9-5.7,69.8-7
			c14.2-0.7,29.2-1,44.8-1s30.6,0.4,44.8,1c26.9,1.3,50.8,3.7,69.8,7c27.7,4.7,44.8,11.2,44.8,18.2s-17.1,13.5-44.8,18.2v10.1
			c59.6-8.2,99.1-22.7,99.1-39.2s-39.5-30.9-99.1-39.2c-21-2.9-44.6-5-69.8-6.2c-14.5-0.7-29.4-1-44.8-1s-30.3,0.3-44.8,1
			c-25.2,1.2-48.8,3.3-69.8,6.2c-59.6,8.2-99.1,22.7-99.1,39.2S245.8,220.1,305.4,228.3z"/>
	</g>
</g>
</svg>
