<?xml version="1.0" encoding="utf-8"?>
<!-- Generator: Adobe Illustrator 26.3.1, SVG Export Plug-In . SVG Version: 6.00 Build 0)  -->
<svg version="1.1" id="Layer_1" xmlns="http://www.w3.org/2000/svg" xmlns:xlink="http://www.w3.org/1999/xlink" x="0px" y="0px"
	 viewBox="0 0 1100 510" style="enable-background:new 0 0 1100 510;" xml:space="preserve">
<style type="text/css">
	.st0{fill:#0053AC;}
	.st1{fill:#2CC3EA;}
	.st2{fill:#FFFFFF;}
</style>
<g id="img1" transform="matrix(1,0,0,1,165,386)">
</g>
<g id="img2" transform="matrix(1,0,0,1,580,1)">
</g>
<g id="Background">
</g>
<g>
	<circle class="st0" cx="255" cy="255.5" r="255"/>
	<g>
		<path class="st1" d="M173.7,422.9L173.7,422.9c-15,0-27.1-12.2-27.1-27.1V115.2c0-15,12.2-27.1,27.1-27.1l0,0
			c15,0,27.1,12.2,27.1,27.1v280.5C200.8,410.7,188.7,422.9,173.7,422.9z"/>
		<path class="st1" d="M336.3,422.9L336.3,422.9c-15,0-27.1-12.2-27.1-27.1V115.2c0-15,12.2-27.1,27.1-27.1l0,0
			c15,0,27.1,12.2,27.1,27.1v280.5C363.4,410.7,351.2,422.9,336.3,422.9z"/>
	</g>
	<path class="st2" d="M255,319.2L255,319.2c-14.1,0-25.5-11.4-25.5-25.5v-76.5c0-14.1,11.4-25.5,25.5-25.5l0,0
		c14.1,0,25.5,11.4,25.5,25.5v76.5C280.5,307.9,269.1,319.2,255,319.2z"/>
</g>
<g>
	<circle class="st0" cx="845" cy="255.5" r="255"/>
	<g>
		<path class="st1" d="M763.7,422.9L763.7,422.9c-15,0-27.1-12.2-27.1-27.1V115.2c0-15,12.2-27.1,27.1-27.1l0,0
			c15,0,27.1,12.2,27.1,27.1v280.5C790.8,410.7,778.7,422.9,763.7,422.9z"/>
		<path class="st1" d="M926.3,422.9L926.3,422.9c-15,0-27.1-12.2-27.1-27.1V115.2c0-15,12.2-27.1,27.1-27.1l0,0
			c15,0,27.1,12.2,27.1,27.1v280.5C953.4,410.7,941.2,422.9,926.3,422.9z"/>
	</g>
	<path class="st2" d="M845,319.2L845,319.2c-14.1,0-25.5-11.4-25.5-25.5v-76.5c0-14.1,11.4-25.5,25.5-25.5l0,0
		c14.1,0,25.5,11.4,25.5,25.5v76.5C870.5,307.9,859.1,319.2,845,319.2z"/>
</g>
</svg>
